<?xml version="1.0" encoding="utf-8" standalone="no"?>
<!DOCTYPE svg PUBLIC "-//W3C//DTD SVG 1.1//EN"
  "http://www.w3.org/Graphics/SVG/1.1/DTD/svg11.dtd">
<!-- Created with matplotlib (https://matplotlib.org/) -->
<svg height="288pt" version="1.1" viewBox="0 0 432 288" width="432pt" xmlns="http://www.w3.org/2000/svg" xmlns:xlink="http://www.w3.org/1999/xlink">
 <defs>
  <style type="text/css">
*{stroke-linecap:butt;stroke-linejoin:round;}
  </style>
 </defs>
 <g id="figure_1">
  <g id="patch_1">
   <path d="M 0 288 
L 432 288 
L 432 0 
L 0 0 
z
" style="fill:#ffffff;"/>
  </g>
  <g id="axes_1">
   <g id="patch_2">
    <path d="M 54 252 
L 388.8 252 
L 388.8 34.56 
L 54 34.56 
z
" style="fill:#ffffff;"/>
   </g>
   <g id="matplotlib.axis_1">
    <g id="xtick_1">
     <g id="line2d_1">
      <defs>
       <path d="M 0 0 
L 0 3.5 
" id="mcdd438851c" style="stroke:#000000;stroke-width:0.8;"/>
      </defs>
      <g>
       <use style="stroke:#000000;stroke-width:0.8;" x="69.218182" xlink:href="#mcdd438851c" y="252"/>
      </g>
     </g>
     <g id="text_1">
      <!-- 0 -->
      <defs>
       <path d="M 31.78125 66.40625 
Q 24.171875 66.40625 20.328125 58.90625 
Q 16.5 51.421875 16.5 36.375 
Q 16.5 21.390625 20.328125 13.890625 
Q 24.171875 6.390625 31.78125 6.390625 
Q 39.453125 6.390625 43.28125 13.890625 
Q 47.125 21.390625 47.125 36.375 
Q 47.125 51.421875 43.28125 58.90625 
Q 39.453125 66.40625 31.78125 66.40625 
z
M 31.78125 74.21875 
Q 44.046875 74.21875 50.515625 64.515625 
Q 56.984375 54.828125 56.984375 36.375 
Q 56.984375 17.96875 50.515625 8.265625 
Q 44.046875 -1.421875 31.78125 -1.421875 
Q 19.53125 -1.421875 13.0625 8.265625 
Q 6.59375 17.96875 6.59375 36.375 
Q 6.59375 54.828125 13.0625 64.515625 
Q 19.53125 74.21875 31.78125 74.21875 
z
" id="DejaVuSans-48"/>
      </defs>
      <g transform="translate(66.036932 266.598437)scale(0.1 -0.1)">
       <use xlink:href="#DejaVuSans-48"/>
      </g>
     </g>
    </g>
    <g id="xtick_2">
     <g id="line2d_2">
      <g>
       <use style="stroke:#000000;stroke-width:0.8;" x="130.090909" xlink:href="#mcdd438851c" y="252"/>
      </g>
     </g>
     <g id="text_2">
      <!-- 20 -->
      <defs>
       <path d="M 19.1875 8.296875 
L 53.609375 8.296875 
L 53.609375 0 
L 7.328125 0 
L 7.328125 8.296875 
Q 12.9375 14.109375 22.625 23.890625 
Q 32.328125 33.6875 34.8125 36.53125 
Q 39.546875 41.84375 41.421875 45.53125 
Q 43.3125 49.21875 43.3125 52.78125 
Q 43.3125 58.59375 39.234375 62.25 
Q 35.15625 65.921875 28.609375 65.921875 
Q 23.96875 65.921875 18.8125 64.3125 
Q 13.671875 62.703125 7.8125 59.421875 
L 7.8125 69.390625 
Q 13.765625 71.78125 18.9375 73 
Q 24.125 74.21875 28.421875 74.21875 
Q 39.75 74.21875 46.484375 68.546875 
Q 53.21875 62.890625 53.21875 53.421875 
Q 53.21875 48.921875 51.53125 44.890625 
Q 49.859375 40.875 45.40625 35.40625 
Q 44.1875 33.984375 37.640625 27.21875 
Q 31.109375 20.453125 19.1875 8.296875 
z
" id="DejaVuSans-50"/>
      </defs>
      <g transform="translate(123.728409 266.598437)scale(0.1 -0.1)">
       <use xlink:href="#DejaVuSans-50"/>
       <use x="63.623047" xlink:href="#DejaVuSans-48"/>
      </g>
     </g>
    </g>
    <g id="xtick_3">
     <g id="line2d_3">
      <g>
       <use style="stroke:#000000;stroke-width:0.8;" x="190.963636" xlink:href="#mcdd438851c" y="252"/>
      </g>
     </g>
     <g id="text_3">
      <!-- 40 -->
      <defs>
       <path d="M 37.796875 64.3125 
L 12.890625 25.390625 
L 37.796875 25.390625 
z
M 35.203125 72.90625 
L 47.609375 72.90625 
L 47.609375 25.390625 
L 58.015625 25.390625 
L 58.015625 17.1875 
L 47.609375 17.1875 
L 47.609375 0 
L 37.796875 0 
L 37.796875 17.1875 
L 4.890625 17.1875 
L 4.890625 26.703125 
z
" id="DejaVuSans-52"/>
      </defs>
      <g transform="translate(184.601136 266.598437)scale(0.1 -0.1)">
       <use xlink:href="#DejaVuSans-52"/>
       <use x="63.623047" xlink:href="#DejaVuSans-48"/>
      </g>
     </g>
    </g>
    <g id="xtick_4">
     <g id="line2d_4">
      <g>
       <use style="stroke:#000000;stroke-width:0.8;" x="251.836364" xlink:href="#mcdd438851c" y="252"/>
      </g>
     </g>
     <g id="text_4">
      <!-- 60 -->
      <defs>
       <path d="M 33.015625 40.375 
Q 26.375 40.375 22.484375 35.828125 
Q 18.609375 31.296875 18.609375 23.390625 
Q 18.609375 15.53125 22.484375 10.953125 
Q 26.375 6.390625 33.015625 6.390625 
Q 39.65625 6.390625 43.53125 10.953125 
Q 47.40625 15.53125 47.40625 23.390625 
Q 47.40625 31.296875 43.53125 35.828125 
Q 39.65625 40.375 33.015625 40.375 
z
M 52.59375 71.296875 
L 52.59375 62.3125 
Q 48.875 64.0625 45.09375 64.984375 
Q 41.3125 65.921875 37.59375 65.921875 
Q 27.828125 65.921875 22.671875 59.328125 
Q 17.53125 52.734375 16.796875 39.40625 
Q 19.671875 43.65625 24.015625 45.921875 
Q 28.375 48.1875 33.59375 48.1875 
Q 44.578125 48.1875 50.953125 41.515625 
Q 57.328125 34.859375 57.328125 23.390625 
Q 57.328125 12.15625 50.6875 5.359375 
Q 44.046875 -1.421875 33.015625 -1.421875 
Q 20.359375 -1.421875 13.671875 8.265625 
Q 6.984375 17.96875 6.984375 36.375 
Q 6.984375 53.65625 15.1875 63.9375 
Q 23.390625 74.21875 37.203125 74.21875 
Q 40.921875 74.21875 44.703125 73.484375 
Q 48.484375 72.75 52.59375 71.296875 
z
" id="DejaVuSans-54"/>
      </defs>
      <g transform="translate(245.473864 266.598437)scale(0.1 -0.1)">
       <use xlink:href="#DejaVuSans-54"/>
       <use x="63.623047" xlink:href="#DejaVuSans-48"/>
      </g>
     </g>
    </g>
    <g id="xtick_5">
     <g id="line2d_5">
      <g>
       <use style="stroke:#000000;stroke-width:0.8;" x="312.709091" xlink:href="#mcdd438851c" y="252"/>
      </g>
     </g>
     <g id="text_5">
      <!-- 80 -->
      <defs>
       <path d="M 31.78125 34.625 
Q 24.75 34.625 20.71875 30.859375 
Q 16.703125 27.09375 16.703125 20.515625 
Q 16.703125 13.921875 20.71875 10.15625 
Q 24.75 6.390625 31.78125 6.390625 
Q 38.8125 6.390625 42.859375 10.171875 
Q 46.921875 13.96875 46.921875 20.515625 
Q 46.921875 27.09375 42.890625 30.859375 
Q 38.875 34.625 31.78125 34.625 
z
M 21.921875 38.8125 
Q 15.578125 40.375 12.03125 44.71875 
Q 8.5 49.078125 8.5 55.328125 
Q 8.5 64.0625 14.71875 69.140625 
Q 20.953125 74.21875 31.78125 74.21875 
Q 42.671875 74.21875 48.875 69.140625 
Q 55.078125 64.0625 55.078125 55.328125 
Q 55.078125 49.078125 51.53125 44.71875 
Q 48 40.375 41.703125 38.8125 
Q 48.828125 37.15625 52.796875 32.3125 
Q 56.78125 27.484375 56.78125 20.515625 
Q 56.78125 9.90625 50.3125 4.234375 
Q 43.84375 -1.421875 31.78125 -1.421875 
Q 19.734375 -1.421875 13.25 4.234375 
Q 6.78125 9.90625 6.78125 20.515625 
Q 6.78125 27.484375 10.78125 32.3125 
Q 14.796875 37.15625 21.921875 38.8125 
z
M 18.3125 54.390625 
Q 18.3125 48.734375 21.84375 45.5625 
Q 25.390625 42.390625 31.78125 42.390625 
Q 38.140625 42.390625 41.71875 45.5625 
Q 45.3125 48.734375 45.3125 54.390625 
Q 45.3125 60.0625 41.71875 63.234375 
Q 38.140625 66.40625 31.78125 66.40625 
Q 25.390625 66.40625 21.84375 63.234375 
Q 18.3125 60.0625 18.3125 54.390625 
z
" id="DejaVuSans-56"/>
      </defs>
      <g transform="translate(306.346591 266.598437)scale(0.1 -0.1)">
       <use xlink:href="#DejaVuSans-56"/>
       <use x="63.623047" xlink:href="#DejaVuSans-48"/>
      </g>
     </g>
    </g>
    <g id="xtick_6">
     <g id="line2d_6">
      <g>
       <use style="stroke:#000000;stroke-width:0.8;" x="373.581818" xlink:href="#mcdd438851c" y="252"/>
      </g>
     </g>
     <g id="text_6">
      <!-- 100 -->
      <defs>
       <path d="M 12.40625 8.296875 
L 28.515625 8.296875 
L 28.515625 63.921875 
L 10.984375 60.40625 
L 10.984375 69.390625 
L 28.421875 72.90625 
L 38.28125 72.90625 
L 38.28125 8.296875 
L 54.390625 8.296875 
L 54.390625 0 
L 12.40625 0 
z
" id="DejaVuSans-49"/>
      </defs>
      <g transform="translate(364.038068 266.598437)scale(0.1 -0.1)">
       <use xlink:href="#DejaVuSans-49"/>
       <use x="63.623047" xlink:href="#DejaVuSans-48"/>
       <use x="127.246094" xlink:href="#DejaVuSans-48"/>
      </g>
     </g>
    </g>
    <g id="text_7">
     <!-- n -->
     <defs>
      <path d="M 54.890625 33.015625 
L 54.890625 0 
L 45.90625 0 
L 45.90625 32.71875 
Q 45.90625 40.484375 42.875 44.328125 
Q 39.84375 48.1875 33.796875 48.1875 
Q 26.515625 48.1875 22.3125 43.546875 
Q 18.109375 38.921875 18.109375 30.90625 
L 18.109375 0 
L 9.078125 0 
L 9.078125 54.6875 
L 18.109375 54.6875 
L 18.109375 46.1875 
Q 21.34375 51.125 25.703125 53.5625 
Q 30.078125 56 35.796875 56 
Q 45.21875 56 50.046875 50.171875 
Q 54.890625 44.34375 54.890625 33.015625 
z
" id="DejaVuSans-110"/>
     </defs>
     <g transform="translate(218.23125 280.276563)scale(0.1 -0.1)">
      <use xlink:href="#DejaVuSans-110"/>
     </g>
    </g>
   </g>
   <g id="matplotlib.axis_2">
    <g id="ytick_1">
     <g id="line2d_7">
      <defs>
       <path d="M 0 0 
L -3.5 0 
" id="m06f95d9281" style="stroke:#000000;stroke-width:0.8;"/>
      </defs>
      <g>
       <use style="stroke:#000000;stroke-width:0.8;" x="54" xlink:href="#m06f95d9281" y="242.116364"/>
      </g>
     </g>
     <g id="text_8">
      <!-- 0 -->
      <g transform="translate(40.6375 245.915582)scale(0.1 -0.1)">
       <use xlink:href="#DejaVuSans-48"/>
      </g>
     </g>
    </g>
    <g id="ytick_2">
     <g id="line2d_8">
      <g>
       <use style="stroke:#000000;stroke-width:0.8;" x="54" xlink:href="#m06f95d9281" y="217.407273"/>
      </g>
     </g>
     <g id="text_9">
      <!-- 1 -->
      <g transform="translate(40.6375 221.206491)scale(0.1 -0.1)">
       <use xlink:href="#DejaVuSans-49"/>
      </g>
     </g>
    </g>
    <g id="ytick_3">
     <g id="line2d_9">
      <g>
       <use style="stroke:#000000;stroke-width:0.8;" x="54" xlink:href="#m06f95d9281" y="192.698182"/>
      </g>
     </g>
     <g id="text_10">
      <!-- 2 -->
      <g transform="translate(40.6375 196.497401)scale(0.1 -0.1)">
       <use xlink:href="#DejaVuSans-50"/>
      </g>
     </g>
    </g>
    <g id="ytick_4">
     <g id="line2d_10">
      <g>
       <use style="stroke:#000000;stroke-width:0.8;" x="54" xlink:href="#m06f95d9281" y="167.989091"/>
      </g>
     </g>
     <g id="text_11">
      <!-- 3 -->
      <defs>
       <path d="M 40.578125 39.3125 
Q 47.65625 37.796875 51.625 33 
Q 55.609375 28.21875 55.609375 21.1875 
Q 55.609375 10.40625 48.1875 4.484375 
Q 40.765625 -1.421875 27.09375 -1.421875 
Q 22.515625 -1.421875 17.65625 -0.515625 
Q 12.796875 0.390625 7.625 2.203125 
L 7.625 11.71875 
Q 11.71875 9.328125 16.59375 8.109375 
Q 21.484375 6.890625 26.8125 6.890625 
Q 36.078125 6.890625 40.9375 10.546875 
Q 45.796875 14.203125 45.796875 21.1875 
Q 45.796875 27.640625 41.28125 31.265625 
Q 36.765625 34.90625 28.71875 34.90625 
L 20.21875 34.90625 
L 20.21875 43.015625 
L 29.109375 43.015625 
Q 36.375 43.015625 40.234375 45.921875 
Q 44.09375 48.828125 44.09375 54.296875 
Q 44.09375 59.90625 40.109375 62.90625 
Q 36.140625 65.921875 28.71875 65.921875 
Q 24.65625 65.921875 20.015625 65.03125 
Q 15.375 64.15625 9.8125 62.3125 
L 9.8125 71.09375 
Q 15.4375 72.65625 20.34375 73.4375 
Q 25.25 74.21875 29.59375 74.21875 
Q 40.828125 74.21875 47.359375 69.109375 
Q 53.90625 64.015625 53.90625 55.328125 
Q 53.90625 49.265625 50.4375 45.09375 
Q 46.96875 40.921875 40.578125 39.3125 
z
" id="DejaVuSans-51"/>
      </defs>
      <g transform="translate(40.6375 171.78831)scale(0.1 -0.1)">
       <use xlink:href="#DejaVuSans-51"/>
      </g>
     </g>
    </g>
    <g id="ytick_5">
     <g id="line2d_11">
      <g>
       <use style="stroke:#000000;stroke-width:0.8;" x="54" xlink:href="#m06f95d9281" y="143.28"/>
      </g>
     </g>
     <g id="text_12">
      <!-- 4 -->
      <g transform="translate(40.6375 147.079219)scale(0.1 -0.1)">
       <use xlink:href="#DejaVuSans-52"/>
      </g>
     </g>
    </g>
    <g id="ytick_6">
     <g id="line2d_12">
      <g>
       <use style="stroke:#000000;stroke-width:0.8;" x="54" xlink:href="#m06f95d9281" y="118.570909"/>
      </g>
     </g>
     <g id="text_13">
      <!-- 5 -->
      <defs>
       <path d="M 10.796875 72.90625 
L 49.515625 72.90625 
L 49.515625 64.59375 
L 19.828125 64.59375 
L 19.828125 46.734375 
Q 21.96875 47.46875 24.109375 47.828125 
Q 26.265625 48.1875 28.421875 48.1875 
Q 40.625 48.1875 47.75 41.5 
Q 54.890625 34.8125 54.890625 23.390625 
Q 54.890625 11.625 47.5625 5.09375 
Q 40.234375 -1.421875 26.90625 -1.421875 
Q 22.3125 -1.421875 17.546875 -0.640625 
Q 12.796875 0.140625 7.71875 1.703125 
L 7.71875 11.625 
Q 12.109375 9.234375 16.796875 8.0625 
Q 21.484375 6.890625 26.703125 6.890625 
Q 35.15625 6.890625 40.078125 11.328125 
Q 45.015625 15.765625 45.015625 23.390625 
Q 45.015625 31 40.078125 35.4375 
Q 35.15625 39.890625 26.703125 39.890625 
Q 22.75 39.890625 18.8125 39.015625 
Q 14.890625 38.140625 10.796875 36.28125 
z
" id="DejaVuSans-53"/>
      </defs>
      <g transform="translate(40.6375 122.370128)scale(0.1 -0.1)">
       <use xlink:href="#DejaVuSans-53"/>
      </g>
     </g>
    </g>
    <g id="ytick_7">
     <g id="line2d_13">
      <g>
       <use style="stroke:#000000;stroke-width:0.8;" x="54" xlink:href="#m06f95d9281" y="93.861818"/>
      </g>
     </g>
     <g id="text_14">
      <!-- 6 -->
      <g transform="translate(40.6375 97.661037)scale(0.1 -0.1)">
       <use xlink:href="#DejaVuSans-54"/>
      </g>
     </g>
    </g>
    <g id="ytick_8">
     <g id="line2d_14">
      <g>
       <use style="stroke:#000000;stroke-width:0.8;" x="54" xlink:href="#m06f95d9281" y="69.152727"/>
      </g>
     </g>
     <g id="text_15">
      <!-- 7 -->
      <defs>
       <path d="M 8.203125 72.90625 
L 55.078125 72.90625 
L 55.078125 68.703125 
L 28.609375 0 
L 18.3125 0 
L 43.21875 64.59375 
L 8.203125 64.59375 
z
" id="DejaVuSans-55"/>
      </defs>
      <g transform="translate(40.6375 72.951946)scale(0.1 -0.1)">
       <use xlink:href="#DejaVuSans-55"/>
      </g>
     </g>
    </g>
    <g id="ytick_9">
     <g id="line2d_15">
      <g>
       <use style="stroke:#000000;stroke-width:0.8;" x="54" xlink:href="#m06f95d9281" y="44.443636"/>
      </g>
     </g>
     <g id="text_16">
      <!-- 8 -->
      <g transform="translate(40.6375 48.242855)scale(0.1 -0.1)">
       <use xlink:href="#DejaVuSans-56"/>
      </g>
     </g>
    </g>
    <g id="text_17">
     <!-- cost -->
     <defs>
      <path d="M 48.78125 52.59375 
L 48.78125 44.1875 
Q 44.96875 46.296875 41.140625 47.34375 
Q 37.3125 48.390625 33.40625 48.390625 
Q 24.65625 48.390625 19.8125 42.84375 
Q 14.984375 37.3125 14.984375 27.296875 
Q 14.984375 17.28125 19.8125 11.734375 
Q 24.65625 6.203125 33.40625 6.203125 
Q 37.3125 6.203125 41.140625 7.25 
Q 44.96875 8.296875 48.78125 10.40625 
L 48.78125 2.09375 
Q 45.015625 0.34375 40.984375 -0.53125 
Q 36.96875 -1.421875 32.421875 -1.421875 
Q 20.0625 -1.421875 12.78125 6.34375 
Q 5.515625 14.109375 5.515625 27.296875 
Q 5.515625 40.671875 12.859375 48.328125 
Q 20.21875 56 33.015625 56 
Q 37.15625 56 41.109375 55.140625 
Q 45.0625 54.296875 48.78125 52.59375 
z
" id="DejaVuSans-99"/>
      <path d="M 30.609375 48.390625 
Q 23.390625 48.390625 19.1875 42.75 
Q 14.984375 37.109375 14.984375 27.296875 
Q 14.984375 17.484375 19.15625 11.84375 
Q 23.34375 6.203125 30.609375 6.203125 
Q 37.796875 6.203125 41.984375 11.859375 
Q 46.1875 17.53125 46.1875 27.296875 
Q 46.1875 37.015625 41.984375 42.703125 
Q 37.796875 48.390625 30.609375 48.390625 
z
M 30.609375 56 
Q 42.328125 56 49.015625 48.375 
Q 55.71875 40.765625 55.71875 27.296875 
Q 55.71875 13.875 49.015625 6.21875 
Q 42.328125 -1.421875 30.609375 -1.421875 
Q 18.84375 -1.421875 12.171875 6.21875 
Q 5.515625 13.875 5.515625 27.296875 
Q 5.515625 40.765625 12.171875 48.375 
Q 18.84375 56 30.609375 56 
z
" id="DejaVuSans-111"/>
      <path d="M 44.28125 53.078125 
L 44.28125 44.578125 
Q 40.484375 46.53125 36.375 47.5 
Q 32.28125 48.484375 27.875 48.484375 
Q 21.1875 48.484375 17.84375 46.4375 
Q 14.5 44.390625 14.5 40.28125 
Q 14.5 37.15625 16.890625 35.375 
Q 19.28125 33.59375 26.515625 31.984375 
L 29.59375 31.296875 
Q 39.15625 29.25 43.1875 25.515625 
Q 47.21875 21.78125 47.21875 15.09375 
Q 47.21875 7.46875 41.1875 3.015625 
Q 35.15625 -1.421875 24.609375 -1.421875 
Q 20.21875 -1.421875 15.453125 -0.5625 
Q 10.6875 0.296875 5.421875 2 
L 5.421875 11.28125 
Q 10.40625 8.6875 15.234375 7.390625 
Q 20.0625 6.109375 24.8125 6.109375 
Q 31.15625 6.109375 34.5625 8.28125 
Q 37.984375 10.453125 37.984375 14.40625 
Q 37.984375 18.0625 35.515625 20.015625 
Q 33.0625 21.96875 24.703125 23.78125 
L 21.578125 24.515625 
Q 13.234375 26.265625 9.515625 29.90625 
Q 5.8125 33.546875 5.8125 39.890625 
Q 5.8125 47.609375 11.28125 51.796875 
Q 16.75 56 26.8125 56 
Q 31.78125 56 36.171875 55.265625 
Q 40.578125 54.546875 44.28125 53.078125 
z
" id="DejaVuSans-115"/>
      <path d="M 18.3125 70.21875 
L 18.3125 54.6875 
L 36.8125 54.6875 
L 36.8125 47.703125 
L 18.3125 47.703125 
L 18.3125 18.015625 
Q 18.3125 11.328125 20.140625 9.421875 
Q 21.96875 7.515625 27.59375 7.515625 
L 36.8125 7.515625 
L 36.8125 0 
L 27.59375 0 
Q 17.1875 0 13.234375 3.875 
Q 9.28125 7.765625 9.28125 18.015625 
L 9.28125 47.703125 
L 2.6875 47.703125 
L 2.6875 54.6875 
L 9.28125 54.6875 
L 9.28125 70.21875 
z
" id="DejaVuSans-116"/>
     </defs>
     <g transform="translate(34.557813 153.653437)rotate(-90)scale(0.1 -0.1)">
      <use xlink:href="#DejaVuSans-99"/>
      <use x="54.980469" xlink:href="#DejaVuSans-111"/>
      <use x="116.162109" xlink:href="#DejaVuSans-115"/>
      <use x="168.261719" xlink:href="#DejaVuSans-116"/>
     </g>
    </g>
   </g>
   <g id="line2d_16">
    <path clip-path="url(#p7f08852288)" d="M 69.218182 217.407273 
L 72.261818 242.116364 
L 75.305455 217.407273 
L 78.349091 192.698182 
L 81.392727 217.407273 
L 84.436364 192.698182 
L 87.48 167.989091 
L 90.523636 192.698182 
L 93.567273 217.407273 
L 96.610909 192.698182 
L 99.654545 167.989091 
L 102.698182 143.28 
L 105.741818 167.989091 
L 108.785455 143.28 
L 111.829091 167.989091 
L 114.872727 192.698182 
L 117.916364 217.407273 
L 120.96 192.698182 
L 124.003636 167.989091 
L 127.047273 143.28 
L 130.090909 167.989091 
L 133.134545 143.28 
L 136.178182 118.570909 
L 139.221818 143.28 
L 142.265455 167.989091 
L 145.309091 143.28 
L 148.352727 118.570909 
L 151.396364 93.861818 
L 154.44 167.989091 
L 157.483636 143.28 
L 160.527273 167.989091 
L 163.570909 192.698182 
L 166.614545 217.407273 
L 169.658182 192.698182 
L 172.701818 167.989091 
L 175.745455 143.28 
L 178.789091 167.989091 
L 181.832727 143.28 
L 184.876364 118.570909 
L 187.92 143.28 
L 190.963636 167.989091 
L 194.007273 143.28 
L 197.050909 118.570909 
L 200.094545 93.861818 
L 203.138182 118.570909 
L 206.181818 93.861818 
L 209.225455 118.570909 
L 212.269091 143.28 
L 215.312727 167.989091 
L 218.356364 143.28 
L 221.4 118.570909 
L 224.443636 93.861818 
L 227.487273 118.570909 
L 230.530909 93.861818 
L 233.574545 69.152727 
L 236.618182 143.28 
L 239.661818 167.989091 
L 242.705455 143.28 
L 245.749091 118.570909 
L 248.792727 93.861818 
L 251.836364 167.989091 
L 254.88 143.28 
L 257.923636 167.989091 
L 260.967273 192.698182 
L 264.010909 217.407273 
L 267.054545 192.698182 
L 270.098182 167.989091 
L 273.141818 143.28 
L 276.185455 167.989091 
L 279.229091 143.28 
L 282.272727 118.570909 
L 285.316364 143.28 
L 288.36 167.989091 
L 291.403636 143.28 
L 294.447273 118.570909 
L 297.490909 93.861818 
L 300.534545 118.570909 
L 303.578182 93.861818 
L 306.621818 118.570909 
L 309.665455 143.28 
L 312.709091 167.989091 
L 315.752727 143.28 
L 318.796364 118.570909 
L 321.84 93.861818 
L 324.883636 118.570909 
L 327.927273 93.861818 
L 330.970909 69.152727 
L 334.014545 93.861818 
L 337.058182 118.570909 
L 340.101818 93.861818 
L 343.145455 69.152727 
L 346.189091 44.443636 
L 349.232727 118.570909 
L 352.276364 93.861818 
L 355.32 118.570909 
L 358.363636 143.28 
L 361.407273 167.989091 
L 364.450909 143.28 
L 367.494545 118.570909 
L 370.538182 93.861818 
L 373.581818 118.570909 
" style="fill:none;stroke:#808080;stroke-linecap:square;stroke-opacity:0.3;stroke-width:1.5;"/>
    <defs>
     <path d="M 0 3 
C 0.795609 3 1.55874 2.683901 2.12132 2.12132 
C 2.683901 1.55874 3 0.795609 3 0 
C 3 -0.795609 2.683901 -1.55874 2.12132 -2.12132 
C 1.55874 -2.683901 0.795609 -3 0 -3 
C -0.795609 -3 -1.55874 -2.683901 -2.12132 -2.12132 
C -2.683901 -1.55874 -3 -0.795609 -3 0 
C -3 0.795609 -2.683901 1.55874 -2.12132 2.12132 
C -1.55874 2.683901 -0.795609 3 0 3 
z
" id="m30600ab4d8" style="stroke:#808080;stroke-opacity:0.3;"/>
    </defs>
    <g clip-path="url(#p7f08852288)">
     <use style="fill:#808080;fill-opacity:0.3;stroke:#808080;stroke-opacity:0.3;" x="69.218182" xlink:href="#m30600ab4d8" y="217.407273"/>
     <use style="fill:#808080;fill-opacity:0.3;stroke:#808080;stroke-opacity:0.3;" x="72.261818" xlink:href="#m30600ab4d8" y="242.116364"/>
     <use style="fill:#808080;fill-opacity:0.3;stroke:#808080;stroke-opacity:0.3;" x="75.305455" xlink:href="#m30600ab4d8" y="217.407273"/>
     <use style="fill:#808080;fill-opacity:0.3;stroke:#808080;stroke-opacity:0.3;" x="78.349091" xlink:href="#m30600ab4d8" y="192.698182"/>
     <use style="fill:#808080;fill-opacity:0.3;stroke:#808080;stroke-opacity:0.3;" x="81.392727" xlink:href="#m30600ab4d8" y="217.407273"/>
     <use style="fill:#808080;fill-opacity:0.3;stroke:#808080;stroke-opacity:0.3;" x="84.436364" xlink:href="#m30600ab4d8" y="192.698182"/>
     <use style="fill:#808080;fill-opacity:0.3;stroke:#808080;stroke-opacity:0.3;" x="87.48" xlink:href="#m30600ab4d8" y="167.989091"/>
     <use style="fill:#808080;fill-opacity:0.3;stroke:#808080;stroke-opacity:0.3;" x="90.523636" xlink:href="#m30600ab4d8" y="192.698182"/>
     <use style="fill:#808080;fill-opacity:0.3;stroke:#808080;stroke-opacity:0.3;" x="93.567273" xlink:href="#m30600ab4d8" y="217.407273"/>
     <use style="fill:#808080;fill-opacity:0.3;stroke:#808080;stroke-opacity:0.3;" x="96.610909" xlink:href="#m30600ab4d8" y="192.698182"/>
     <use style="fill:#808080;fill-opacity:0.3;stroke:#808080;stroke-opacity:0.3;" x="99.654545" xlink:href="#m30600ab4d8" y="167.989091"/>
     <use style="fill:#808080;fill-opacity:0.3;stroke:#808080;stroke-opacity:0.3;" x="102.698182" xlink:href="#m30600ab4d8" y="143.28"/>
     <use style="fill:#808080;fill-opacity:0.3;stroke:#808080;stroke-opacity:0.3;" x="105.741818" xlink:href="#m30600ab4d8" y="167.989091"/>
     <use style="fill:#808080;fill-opacity:0.3;stroke:#808080;stroke-opacity:0.3;" x="108.785455" xlink:href="#m30600ab4d8" y="143.28"/>
     <use style="fill:#808080;fill-opacity:0.3;stroke:#808080;stroke-opacity:0.3;" x="111.829091" xlink:href="#m30600ab4d8" y="167.989091"/>
     <use style="fill:#808080;fill-opacity:0.3;stroke:#808080;stroke-opacity:0.3;" x="114.872727" xlink:href="#m30600ab4d8" y="192.698182"/>
     <use style="fill:#808080;fill-opacity:0.3;stroke:#808080;stroke-opacity:0.3;" x="117.916364" xlink:href="#m30600ab4d8" y="217.407273"/>
     <use style="fill:#808080;fill-opacity:0.3;stroke:#808080;stroke-opacity:0.3;" x="120.96" xlink:href="#m30600ab4d8" y="192.698182"/>
     <use style="fill:#808080;fill-opacity:0.3;stroke:#808080;stroke-opacity:0.3;" x="124.003636" xlink:href="#m30600ab4d8" y="167.989091"/>
     <use style="fill:#808080;fill-opacity:0.3;stroke:#808080;stroke-opacity:0.3;" x="127.047273" xlink:href="#m30600ab4d8" y="143.28"/>
     <use style="fill:#808080;fill-opacity:0.3;stroke:#808080;stroke-opacity:0.3;" x="130.090909" xlink:href="#m30600ab4d8" y="167.989091"/>
     <use style="fill:#808080;fill-opacity:0.3;stroke:#808080;stroke-opacity:0.3;" x="133.134545" xlink:href="#m30600ab4d8" y="143.28"/>
     <use style="fill:#808080;fill-opacity:0.3;stroke:#808080;stroke-opacity:0.3;" x="136.178182" xlink:href="#m30600ab4d8" y="118.570909"/>
     <use style="fill:#808080;fill-opacity:0.3;stroke:#808080;stroke-opacity:0.3;" x="139.221818" xlink:href="#m30600ab4d8" y="143.28"/>
     <use style="fill:#808080;fill-opacity:0.3;stroke:#808080;stroke-opacity:0.3;" x="142.265455" xlink:href="#m30600ab4d8" y="167.989091"/>
     <use style="fill:#808080;fill-opacity:0.3;stroke:#808080;stroke-opacity:0.3;" x="145.309091" xlink:href="#m30600ab4d8" y="143.28"/>
     <use style="fill:#808080;fill-opacity:0.3;stroke:#808080;stroke-opacity:0.3;" x="148.352727" xlink:href="#m30600ab4d8" y="118.570909"/>
     <use style="fill:#808080;fill-opacity:0.3;stroke:#808080;stroke-opacity:0.3;" x="151.396364" xlink:href="#m30600ab4d8" y="93.861818"/>
     <use style="fill:#808080;fill-opacity:0.3;stroke:#808080;stroke-opacity:0.3;" x="154.44" xlink:href="#m30600ab4d8" y="167.989091"/>
     <use style="fill:#808080;fill-opacity:0.3;stroke:#808080;stroke-opacity:0.3;" x="157.483636" xlink:href="#m30600ab4d8" y="143.28"/>
     <use style="fill:#808080;fill-opacity:0.3;stroke:#808080;stroke-opacity:0.3;" x="160.527273" xlink:href="#m30600ab4d8" y="167.989091"/>
     <use style="fill:#808080;fill-opacity:0.3;stroke:#808080;stroke-opacity:0.3;" x="163.570909" xlink:href="#m30600ab4d8" y="192.698182"/>
     <use style="fill:#808080;fill-opacity:0.3;stroke:#808080;stroke-opacity:0.3;" x="166.614545" xlink:href="#m30600ab4d8" y="217.407273"/>
     <use style="fill:#808080;fill-opacity:0.3;stroke:#808080;stroke-opacity:0.3;" x="169.658182" xlink:href="#m30600ab4d8" y="192.698182"/>
     <use style="fill:#808080;fill-opacity:0.3;stroke:#808080;stroke-opacity:0.3;" x="172.701818" xlink:href="#m30600ab4d8" y="167.989091"/>
     <use style="fill:#808080;fill-opacity:0.3;stroke:#808080;stroke-opacity:0.3;" x="175.745455" xlink:href="#m30600ab4d8" y="143.28"/>
     <use style="fill:#808080;fill-opacity:0.3;stroke:#808080;stroke-opacity:0.3;" x="178.789091" xlink:href="#m30600ab4d8" y="167.989091"/>
     <use style="fill:#808080;fill-opacity:0.3;stroke:#808080;stroke-opacity:0.3;" x="181.832727" xlink:href="#m30600ab4d8" y="143.28"/>
     <use style="fill:#808080;fill-opacity:0.3;stroke:#808080;stroke-opacity:0.3;" x="184.876364" xlink:href="#m30600ab4d8" y="118.570909"/>
     <use style="fill:#808080;fill-opacity:0.3;stroke:#808080;stroke-opacity:0.3;" x="187.92" xlink:href="#m30600ab4d8" y="143.28"/>
     <use style="fill:#808080;fill-opacity:0.3;stroke:#808080;stroke-opacity:0.3;" x="190.963636" xlink:href="#m30600ab4d8" y="167.989091"/>
     <use style="fill:#808080;fill-opacity:0.3;stroke:#808080;stroke-opacity:0.3;" x="194.007273" xlink:href="#m30600ab4d8" y="143.28"/>
     <use style="fill:#808080;fill-opacity:0.3;stroke:#808080;stroke-opacity:0.3;" x="197.050909" xlink:href="#m30600ab4d8" y="118.570909"/>
     <use style="fill:#808080;fill-opacity:0.3;stroke:#808080;stroke-opacity:0.3;" x="200.094545" xlink:href="#m30600ab4d8" y="93.861818"/>
     <use style="fill:#808080;fill-opacity:0.3;stroke:#808080;stroke-opacity:0.3;" x="203.138182" xlink:href="#m30600ab4d8" y="118.570909"/>
     <use style="fill:#808080;fill-opacity:0.3;stroke:#808080;stroke-opacity:0.3;" x="206.181818" xlink:href="#m30600ab4d8" y="93.861818"/>
     <use style="fill:#808080;fill-opacity:0.3;stroke:#808080;stroke-opacity:0.3;" x="209.225455" xlink:href="#m30600ab4d8" y="118.570909"/>
     <use style="fill:#808080;fill-opacity:0.3;stroke:#808080;stroke-opacity:0.3;" x="212.269091" xlink:href="#m30600ab4d8" y="143.28"/>
     <use style="fill:#808080;fill-opacity:0.3;stroke:#808080;stroke-opacity:0.3;" x="215.312727" xlink:href="#m30600ab4d8" y="167.989091"/>
     <use style="fill:#808080;fill-opacity:0.3;stroke:#808080;stroke-opacity:0.3;" x="218.356364" xlink:href="#m30600ab4d8" y="143.28"/>
     <use style="fill:#808080;fill-opacity:0.3;stroke:#808080;stroke-opacity:0.3;" x="221.4" xlink:href="#m30600ab4d8" y="118.570909"/>
     <use style="fill:#808080;fill-opacity:0.3;stroke:#808080;stroke-opacity:0.3;" x="224.443636" xlink:href="#m30600ab4d8" y="93.861818"/>
     <use style="fill:#808080;fill-opacity:0.3;stroke:#808080;stroke-opacity:0.3;" x="227.487273" xlink:href="#m30600ab4d8" y="118.570909"/>
     <use style="fill:#808080;fill-opacity:0.3;stroke:#808080;stroke-opacity:0.3;" x="230.530909" xlink:href="#m30600ab4d8" y="93.861818"/>
     <use style="fill:#808080;fill-opacity:0.3;stroke:#808080;stroke-opacity:0.3;" x="233.574545" xlink:href="#m30600ab4d8" y="69.152727"/>
     <use style="fill:#808080;fill-opacity:0.3;stroke:#808080;stroke-opacity:0.3;" x="236.618182" xlink:href="#m30600ab4d8" y="143.28"/>
     <use style="fill:#808080;fill-opacity:0.3;stroke:#808080;stroke-opacity:0.3;" x="239.661818" xlink:href="#m30600ab4d8" y="167.989091"/>
     <use style="fill:#808080;fill-opacity:0.3;stroke:#808080;stroke-opacity:0.3;" x="242.705455" xlink:href="#m30600ab4d8" y="143.28"/>
     <use style="fill:#808080;fill-opacity:0.3;stroke:#808080;stroke-opacity:0.3;" x="245.749091" xlink:href="#m30600ab4d8" y="118.570909"/>
     <use style="fill:#808080;fill-opacity:0.3;stroke:#808080;stroke-opacity:0.3;" x="248.792727" xlink:href="#m30600ab4d8" y="93.861818"/>
     <use style="fill:#808080;fill-opacity:0.3;stroke:#808080;stroke-opacity:0.3;" x="251.836364" xlink:href="#m30600ab4d8" y="167.989091"/>
     <use style="fill:#808080;fill-opacity:0.3;stroke:#808080;stroke-opacity:0.3;" x="254.88" xlink:href="#m30600ab4d8" y="143.28"/>
     <use style="fill:#808080;fill-opacity:0.3;stroke:#808080;stroke-opacity:0.3;" x="257.923636" xlink:href="#m30600ab4d8" y="167.989091"/>
     <use style="fill:#808080;fill-opacity:0.3;stroke:#808080;stroke-opacity:0.3;" x="260.967273" xlink:href="#m30600ab4d8" y="192.698182"/>
     <use style="fill:#808080;fill-opacity:0.3;stroke:#808080;stroke-opacity:0.3;" x="264.010909" xlink:href="#m30600ab4d8" y="217.407273"/>
     <use style="fill:#808080;fill-opacity:0.3;stroke:#808080;stroke-opacity:0.3;" x="267.054545" xlink:href="#m30600ab4d8" y="192.698182"/>
     <use style="fill:#808080;fill-opacity:0.3;stroke:#808080;stroke-opacity:0.3;" x="270.098182" xlink:href="#m30600ab4d8" y="167.989091"/>
     <use style="fill:#808080;fill-opacity:0.3;stroke:#808080;stroke-opacity:0.3;" x="273.141818" xlink:href="#m30600ab4d8" y="143.28"/>
     <use style="fill:#808080;fill-opacity:0.3;stroke:#808080;stroke-opacity:0.3;" x="276.185455" xlink:href="#m30600ab4d8" y="167.989091"/>
     <use style="fill:#808080;fill-opacity:0.3;stroke:#808080;stroke-opacity:0.3;" x="279.229091" xlink:href="#m30600ab4d8" y="143.28"/>
     <use style="fill:#808080;fill-opacity:0.3;stroke:#808080;stroke-opacity:0.3;" x="282.272727" xlink:href="#m30600ab4d8" y="118.570909"/>
     <use style="fill:#808080;fill-opacity:0.3;stroke:#808080;stroke-opacity:0.3;" x="285.316364" xlink:href="#m30600ab4d8" y="143.28"/>
     <use style="fill:#808080;fill-opacity:0.3;stroke:#808080;stroke-opacity:0.3;" x="288.36" xlink:href="#m30600ab4d8" y="167.989091"/>
     <use style="fill:#808080;fill-opacity:0.3;stroke:#808080;stroke-opacity:0.3;" x="291.403636" xlink:href="#m30600ab4d8" y="143.28"/>
     <use style="fill:#808080;fill-opacity:0.3;stroke:#808080;stroke-opacity:0.3;" x="294.447273" xlink:href="#m30600ab4d8" y="118.570909"/>
     <use style="fill:#808080;fill-opacity:0.3;stroke:#808080;stroke-opacity:0.3;" x="297.490909" xlink:href="#m30600ab4d8" y="93.861818"/>
     <use style="fill:#808080;fill-opacity:0.3;stroke:#808080;stroke-opacity:0.3;" x="300.534545" xlink:href="#m30600ab4d8" y="118.570909"/>
     <use style="fill:#808080;fill-opacity:0.3;stroke:#808080;stroke-opacity:0.3;" x="303.578182" xlink:href="#m30600ab4d8" y="93.861818"/>
     <use style="fill:#808080;fill-opacity:0.3;stroke:#808080;stroke-opacity:0.3;" x="306.621818" xlink:href="#m30600ab4d8" y="118.570909"/>
     <use style="fill:#808080;fill-opacity:0.3;stroke:#808080;stroke-opacity:0.3;" x="309.665455" xlink:href="#m30600ab4d8" y="143.28"/>
     <use style="fill:#808080;fill-opacity:0.3;stroke:#808080;stroke-opacity:0.3;" x="312.709091" xlink:href="#m30600ab4d8" y="167.989091"/>
     <use style="fill:#808080;fill-opacity:0.3;stroke:#808080;stroke-opacity:0.3;" x="315.752727" xlink:href="#m30600ab4d8" y="143.28"/>
     <use style="fill:#808080;fill-opacity:0.3;stroke:#808080;stroke-opacity:0.3;" x="318.796364" xlink:href="#m30600ab4d8" y="118.570909"/>
     <use style="fill:#808080;fill-opacity:0.3;stroke:#808080;stroke-opacity:0.3;" x="321.84" xlink:href="#m30600ab4d8" y="93.861818"/>
     <use style="fill:#808080;fill-opacity:0.3;stroke:#808080;stroke-opacity:0.3;" x="324.883636" xlink:href="#m30600ab4d8" y="118.570909"/>
     <use style="fill:#808080;fill-opacity:0.3;stroke:#808080;stroke-opacity:0.3;" x="327.927273" xlink:href="#m30600ab4d8" y="93.861818"/>
     <use style="fill:#808080;fill-opacity:0.3;stroke:#808080;stroke-opacity:0.3;" x="330.970909" xlink:href="#m30600ab4d8" y="69.152727"/>
     <use style="fill:#808080;fill-opacity:0.3;stroke:#808080;stroke-opacity:0.3;" x="334.014545" xlink:href="#m30600ab4d8" y="93.861818"/>
     <use style="fill:#808080;fill-opacity:0.3;stroke:#808080;stroke-opacity:0.3;" x="337.058182" xlink:href="#m30600ab4d8" y="118.570909"/>
     <use style="fill:#808080;fill-opacity:0.3;stroke:#808080;stroke-opacity:0.3;" x="340.101818" xlink:href="#m30600ab4d8" y="93.861818"/>
     <use style="fill:#808080;fill-opacity:0.3;stroke:#808080;stroke-opacity:0.3;" x="343.145455" xlink:href="#m30600ab4d8" y="69.152727"/>
     <use style="fill:#808080;fill-opacity:0.3;stroke:#808080;stroke-opacity:0.3;" x="346.189091" xlink:href="#m30600ab4d8" y="44.443636"/>
     <use style="fill:#808080;fill-opacity:0.3;stroke:#808080;stroke-opacity:0.3;" x="349.232727" xlink:href="#m30600ab4d8" y="118.570909"/>
     <use style="fill:#808080;fill-opacity:0.3;stroke:#808080;stroke-opacity:0.3;" x="352.276364" xlink:href="#m30600ab4d8" y="93.861818"/>
     <use style="fill:#808080;fill-opacity:0.3;stroke:#808080;stroke-opacity:0.3;" x="355.32" xlink:href="#m30600ab4d8" y="118.570909"/>
     <use style="fill:#808080;fill-opacity:0.3;stroke:#808080;stroke-opacity:0.3;" x="358.363636" xlink:href="#m30600ab4d8" y="143.28"/>
     <use style="fill:#808080;fill-opacity:0.3;stroke:#808080;stroke-opacity:0.3;" x="361.407273" xlink:href="#m30600ab4d8" y="167.989091"/>
     <use style="fill:#808080;fill-opacity:0.3;stroke:#808080;stroke-opacity:0.3;" x="364.450909" xlink:href="#m30600ab4d8" y="143.28"/>
     <use style="fill:#808080;fill-opacity:0.3;stroke:#808080;stroke-opacity:0.3;" x="367.494545" xlink:href="#m30600ab4d8" y="118.570909"/>
     <use style="fill:#808080;fill-opacity:0.3;stroke:#808080;stroke-opacity:0.3;" x="370.538182" xlink:href="#m30600ab4d8" y="93.861818"/>
     <use style="fill:#808080;fill-opacity:0.3;stroke:#808080;stroke-opacity:0.3;" x="373.581818" xlink:href="#m30600ab4d8" y="118.570909"/>
    </g>
   </g>
   <g id="line2d_17">
    <path clip-path="url(#p7f08852288)" d="M 69.218182 217.407273 
L 72.261818 242.116364 
L 75.305455 217.407273 
L 78.349091 192.698182 
L 81.392727 217.407273 
L 84.436364 192.698182 
L 87.48 167.989091 
L 90.523636 192.698182 
L 93.567273 217.407273 
L 96.610909 192.698182 
L 99.654545 167.989091 
L 102.698182 143.28 
L 105.741818 167.989091 
L 108.785455 143.28 
L 111.829091 167.989091 
L 114.872727 192.698182 
L 117.916364 217.407273 
L 120.96 192.698182 
L 124.003636 167.989091 
L 127.047273 143.28 
L 130.090909 167.989091 
L 133.134545 143.28 
L 136.178182 118.570909 
L 139.221818 143.28 
L 142.265455 167.989091 
L 145.309091 143.28 
L 148.352727 118.570909 
L 151.396364 143.28 
L 154.44 167.989091 
L 157.483636 143.28 
L 160.527273 167.989091 
L 163.570909 192.698182 
L 166.614545 217.407273 
L 169.658182 192.698182 
L 172.701818 167.989091 
L 175.745455 143.28 
L 178.789091 167.989091 
L 181.832727 143.28 
L 184.876364 118.570909 
L 187.92 143.28 
L 190.963636 167.989091 
L 194.007273 143.28 
L 197.050909 118.570909 
L 200.094545 93.861818 
L 203.138182 118.570909 
L 206.181818 143.28 
L 209.225455 118.570909 
L 212.269091 143.28 
L 215.312727 167.989091 
L 218.356364 143.28 
L 221.4 118.570909 
L 224.443636 143.28 
L 227.487273 118.570909 
L 230.530909 93.861818 
L 233.574545 118.570909 
L 236.618182 143.28 
L 239.661818 167.989091 
L 242.705455 143.28 
L 245.749091 118.570909 
L 248.792727 143.28 
L 251.836364 167.989091 
L 254.88 143.28 
L 257.923636 167.989091 
L 260.967273 192.698182 
L 264.010909 217.407273 
L 267.054545 192.698182 
L 270.098182 167.989091 
L 273.141818 143.28 
L 276.185455 167.989091 
L 279.229091 143.28 
L 282.272727 118.570909 
L 285.316364 143.28 
L 288.36 167.989091 
L 291.403636 143.28 
L 294.447273 118.570909 
L 297.490909 143.28 
L 300.534545 118.570909 
L 303.578182 93.861818 
L 306.621818 118.570909 
L 309.665455 143.28 
L 312.709091 167.989091 
L 315.752727 143.28 
L 318.796364 118.570909 
L 321.84 93.861818 
L 324.883636 118.570909 
L 327.927273 143.28 
L 330.970909 69.152727 
L 334.014545 93.861818 
L 337.058182 118.570909 
L 340.101818 93.861818 
L 343.145455 118.570909 
L 346.189091 93.861818 
L 349.232727 118.570909 
L 352.276364 143.28 
L 355.32 118.570909 
L 358.363636 143.28 
L 361.407273 167.989091 
L 364.450909 143.28 
L 367.494545 118.570909 
L 370.538182 143.28 
L 373.581818 118.570909 
" style="fill:none;stroke:#0000ff;stroke-linecap:square;stroke-width:1.5;"/>
    <defs>
     <path d="M 0 3 
C 0.795609 3 1.55874 2.683901 2.12132 2.12132 
C 2.683901 1.55874 3 0.795609 3 0 
C 3 -0.795609 2.683901 -1.55874 2.12132 -2.12132 
C 1.55874 -2.683901 0.795609 -3 0 -3 
C -0.795609 -3 -1.55874 -2.683901 -2.12132 -2.12132 
C -2.683901 -1.55874 -3 -0.795609 -3 0 
C -3 0.795609 -2.683901 1.55874 -2.12132 2.12132 
C -1.55874 2.683901 -0.795609 3 0 3 
z
" id="mc7e4fc58b5" style="stroke:#0000ff;"/>
    </defs>
    <g clip-path="url(#p7f08852288)">
     <use style="fill:#0000ff;stroke:#0000ff;" x="69.218182" xlink:href="#mc7e4fc58b5" y="217.407273"/>
     <use style="fill:#0000ff;stroke:#0000ff;" x="72.261818" xlink:href="#mc7e4fc58b5" y="242.116364"/>
     <use style="fill:#0000ff;stroke:#0000ff;" x="75.305455" xlink:href="#mc7e4fc58b5" y="217.407273"/>
     <use style="fill:#0000ff;stroke:#0000ff;" x="78.349091" xlink:href="#mc7e4fc58b5" y="192.698182"/>
     <use style="fill:#0000ff;stroke:#0000ff;" x="81.392727" xlink:href="#mc7e4fc58b5" y="217.407273"/>
     <use style="fill:#0000ff;stroke:#0000ff;" x="84.436364" xlink:href="#mc7e4fc58b5" y="192.698182"/>
     <use style="fill:#0000ff;stroke:#0000ff;" x="87.48" xlink:href="#mc7e4fc58b5" y="167.989091"/>
     <use style="fill:#0000ff;stroke:#0000ff;" x="90.523636" xlink:href="#mc7e4fc58b5" y="192.698182"/>
     <use style="fill:#0000ff;stroke:#0000ff;" x="93.567273" xlink:href="#mc7e4fc58b5" y="217.407273"/>
     <use style="fill:#0000ff;stroke:#0000ff;" x="96.610909" xlink:href="#mc7e4fc58b5" y="192.698182"/>
     <use style="fill:#0000ff;stroke:#0000ff;" x="99.654545" xlink:href="#mc7e4fc58b5" y="167.989091"/>
     <use style="fill:#0000ff;stroke:#0000ff;" x="102.698182" xlink:href="#mc7e4fc58b5" y="143.28"/>
     <use style="fill:#0000ff;stroke:#0000ff;" x="105.741818" xlink:href="#mc7e4fc58b5" y="167.989091"/>
     <use style="fill:#0000ff;stroke:#0000ff;" x="108.785455" xlink:href="#mc7e4fc58b5" y="143.28"/>
     <use style="fill:#0000ff;stroke:#0000ff;" x="111.829091" xlink:href="#mc7e4fc58b5" y="167.989091"/>
     <use style="fill:#0000ff;stroke:#0000ff;" x="114.872727" xlink:href="#mc7e4fc58b5" y="192.698182"/>
     <use style="fill:#0000ff;stroke:#0000ff;" x="117.916364" xlink:href="#mc7e4fc58b5" y="217.407273"/>
     <use style="fill:#0000ff;stroke:#0000ff;" x="120.96" xlink:href="#mc7e4fc58b5" y="192.698182"/>
     <use style="fill:#0000ff;stroke:#0000ff;" x="124.003636" xlink:href="#mc7e4fc58b5" y="167.989091"/>
     <use style="fill:#0000ff;stroke:#0000ff;" x="127.047273" xlink:href="#mc7e4fc58b5" y="143.28"/>
     <use style="fill:#0000ff;stroke:#0000ff;" x="130.090909" xlink:href="#mc7e4fc58b5" y="167.989091"/>
     <use style="fill:#0000ff;stroke:#0000ff;" x="133.134545" xlink:href="#mc7e4fc58b5" y="143.28"/>
     <use style="fill:#0000ff;stroke:#0000ff;" x="136.178182" xlink:href="#mc7e4fc58b5" y="118.570909"/>
     <use style="fill:#0000ff;stroke:#0000ff;" x="139.221818" xlink:href="#mc7e4fc58b5" y="143.28"/>
     <use style="fill:#0000ff;stroke:#0000ff;" x="142.265455" xlink:href="#mc7e4fc58b5" y="167.989091"/>
     <use style="fill:#0000ff;stroke:#0000ff;" x="145.309091" xlink:href="#mc7e4fc58b5" y="143.28"/>
     <use style="fill:#0000ff;stroke:#0000ff;" x="148.352727" xlink:href="#mc7e4fc58b5" y="118.570909"/>
     <use style="fill:#0000ff;stroke:#0000ff;" x="151.396364" xlink:href="#mc7e4fc58b5" y="143.28"/>
     <use style="fill:#0000ff;stroke:#0000ff;" x="154.44" xlink:href="#mc7e4fc58b5" y="167.989091"/>
     <use style="fill:#0000ff;stroke:#0000ff;" x="157.483636" xlink:href="#mc7e4fc58b5" y="143.28"/>
     <use style="fill:#0000ff;stroke:#0000ff;" x="160.527273" xlink:href="#mc7e4fc58b5" y="167.989091"/>
     <use style="fill:#0000ff;stroke:#0000ff;" x="163.570909" xlink:href="#mc7e4fc58b5" y="192.698182"/>
     <use style="fill:#0000ff;stroke:#0000ff;" x="166.614545" xlink:href="#mc7e4fc58b5" y="217.407273"/>
     <use style="fill:#0000ff;stroke:#0000ff;" x="169.658182" xlink:href="#mc7e4fc58b5" y="192.698182"/>
     <use style="fill:#0000ff;stroke:#0000ff;" x="172.701818" xlink:href="#mc7e4fc58b5" y="167.989091"/>
     <use style="fill:#0000ff;stroke:#0000ff;" x="175.745455" xlink:href="#mc7e4fc58b5" y="143.28"/>
     <use style="fill:#0000ff;stroke:#0000ff;" x="178.789091" xlink:href="#mc7e4fc58b5" y="167.989091"/>
     <use style="fill:#0000ff;stroke:#0000ff;" x="181.832727" xlink:href="#mc7e4fc58b5" y="143.28"/>
     <use style="fill:#0000ff;stroke:#0000ff;" x="184.876364" xlink:href="#mc7e4fc58b5" y="118.570909"/>
     <use style="fill:#0000ff;stroke:#0000ff;" x="187.92" xlink:href="#mc7e4fc58b5" y="143.28"/>
     <use style="fill:#0000ff;stroke:#0000ff;" x="190.963636" xlink:href="#mc7e4fc58b5" y="167.989091"/>
     <use style="fill:#0000ff;stroke:#0000ff;" x="194.007273" xlink:href="#mc7e4fc58b5" y="143.28"/>
     <use style="fill:#0000ff;stroke:#0000ff;" x="197.050909" xlink:href="#mc7e4fc58b5" y="118.570909"/>
     <use style="fill:#0000ff;stroke:#0000ff;" x="200.094545" xlink:href="#mc7e4fc58b5" y="93.861818"/>
     <use style="fill:#0000ff;stroke:#0000ff;" x="203.138182" xlink:href="#mc7e4fc58b5" y="118.570909"/>
     <use style="fill:#0000ff;stroke:#0000ff;" x="206.181818" xlink:href="#mc7e4fc58b5" y="143.28"/>
     <use style="fill:#0000ff;stroke:#0000ff;" x="209.225455" xlink:href="#mc7e4fc58b5" y="118.570909"/>
     <use style="fill:#0000ff;stroke:#0000ff;" x="212.269091" xlink:href="#mc7e4fc58b5" y="143.28"/>
     <use style="fill:#0000ff;stroke:#0000ff;" x="215.312727" xlink:href="#mc7e4fc58b5" y="167.989091"/>
     <use style="fill:#0000ff;stroke:#0000ff;" x="218.356364" xlink:href="#mc7e4fc58b5" y="143.28"/>
     <use style="fill:#0000ff;stroke:#0000ff;" x="221.4" xlink:href="#mc7e4fc58b5" y="118.570909"/>
     <use style="fill:#0000ff;stroke:#0000ff;" x="224.443636" xlink:href="#mc7e4fc58b5" y="143.28"/>
     <use style="fill:#0000ff;stroke:#0000ff;" x="227.487273" xlink:href="#mc7e4fc58b5" y="118.570909"/>
     <use style="fill:#0000ff;stroke:#0000ff;" x="230.530909" xlink:href="#mc7e4fc58b5" y="93.861818"/>
     <use style="fill:#0000ff;stroke:#0000ff;" x="233.574545" xlink:href="#mc7e4fc58b5" y="118.570909"/>
     <use style="fill:#0000ff;stroke:#0000ff;" x="236.618182" xlink:href="#mc7e4fc58b5" y="143.28"/>
     <use style="fill:#0000ff;stroke:#0000ff;" x="239.661818" xlink:href="#mc7e4fc58b5" y="167.989091"/>
     <use style="fill:#0000ff;stroke:#0000ff;" x="242.705455" xlink:href="#mc7e4fc58b5" y="143.28"/>
     <use style="fill:#0000ff;stroke:#0000ff;" x="245.749091" xlink:href="#mc7e4fc58b5" y="118.570909"/>
     <use style="fill:#0000ff;stroke:#0000ff;" x="248.792727" xlink:href="#mc7e4fc58b5" y="143.28"/>
     <use style="fill:#0000ff;stroke:#0000ff;" x="251.836364" xlink:href="#mc7e4fc58b5" y="167.989091"/>
     <use style="fill:#0000ff;stroke:#0000ff;" x="254.88" xlink:href="#mc7e4fc58b5" y="143.28"/>
     <use style="fill:#0000ff;stroke:#0000ff;" x="257.923636" xlink:href="#mc7e4fc58b5" y="167.989091"/>
     <use style="fill:#0000ff;stroke:#0000ff;" x="260.967273" xlink:href="#mc7e4fc58b5" y="192.698182"/>
     <use style="fill:#0000ff;stroke:#0000ff;" x="264.010909" xlink:href="#mc7e4fc58b5" y="217.407273"/>
     <use style="fill:#0000ff;stroke:#0000ff;" x="267.054545" xlink:href="#mc7e4fc58b5" y="192.698182"/>
     <use style="fill:#0000ff;stroke:#0000ff;" x="270.098182" xlink:href="#mc7e4fc58b5" y="167.989091"/>
     <use style="fill:#0000ff;stroke:#0000ff;" x="273.141818" xlink:href="#mc7e4fc58b5" y="143.28"/>
     <use style="fill:#0000ff;stroke:#0000ff;" x="276.185455" xlink:href="#mc7e4fc58b5" y="167.989091"/>
     <use style="fill:#0000ff;stroke:#0000ff;" x="279.229091" xlink:href="#mc7e4fc58b5" y="143.28"/>
     <use style="fill:#0000ff;stroke:#0000ff;" x="282.272727" xlink:href="#mc7e4fc58b5" y="118.570909"/>
     <use style="fill:#0000ff;stroke:#0000ff;" x="285.316364" xlink:href="#mc7e4fc58b5" y="143.28"/>
     <use style="fill:#0000ff;stroke:#0000ff;" x="288.36" xlink:href="#mc7e4fc58b5" y="167.989091"/>
     <use style="fill:#0000ff;stroke:#0000ff;" x="291.403636" xlink:href="#mc7e4fc58b5" y="143.28"/>
     <use style="fill:#0000ff;stroke:#0000ff;" x="294.447273" xlink:href="#mc7e4fc58b5" y="118.570909"/>
     <use style="fill:#0000ff;stroke:#0000ff;" x="297.490909" xlink:href="#mc7e4fc58b5" y="143.28"/>
     <use style="fill:#0000ff;stroke:#0000ff;" x="300.534545" xlink:href="#mc7e4fc58b5" y="118.570909"/>
     <use style="fill:#0000ff;stroke:#0000ff;" x="303.578182" xlink:href="#mc7e4fc58b5" y="93.861818"/>
     <use style="fill:#0000ff;stroke:#0000ff;" x="306.621818" xlink:href="#mc7e4fc58b5" y="118.570909"/>
     <use style="fill:#0000ff;stroke:#0000ff;" x="309.665455" xlink:href="#mc7e4fc58b5" y="143.28"/>
     <use style="fill:#0000ff;stroke:#0000ff;" x="312.709091" xlink:href="#mc7e4fc58b5" y="167.989091"/>
     <use style="fill:#0000ff;stroke:#0000ff;" x="315.752727" xlink:href="#mc7e4fc58b5" y="143.28"/>
     <use style="fill:#0000ff;stroke:#0000ff;" x="318.796364" xlink:href="#mc7e4fc58b5" y="118.570909"/>
     <use style="fill:#0000ff;stroke:#0000ff;" x="321.84" xlink:href="#mc7e4fc58b5" y="93.861818"/>
     <use style="fill:#0000ff;stroke:#0000ff;" x="324.883636" xlink:href="#mc7e4fc58b5" y="118.570909"/>
     <use style="fill:#0000ff;stroke:#0000ff;" x="327.927273" xlink:href="#mc7e4fc58b5" y="143.28"/>
     <use style="fill:#0000ff;stroke:#0000ff;" x="330.970909" xlink:href="#mc7e4fc58b5" y="69.152727"/>
     <use style="fill:#0000ff;stroke:#0000ff;" x="334.014545" xlink:href="#mc7e4fc58b5" y="93.861818"/>
     <use style="fill:#0000ff;stroke:#0000ff;" x="337.058182" xlink:href="#mc7e4fc58b5" y="118.570909"/>
     <use style="fill:#0000ff;stroke:#0000ff;" x="340.101818" xlink:href="#mc7e4fc58b5" y="93.861818"/>
     <use style="fill:#0000ff;stroke:#0000ff;" x="343.145455" xlink:href="#mc7e4fc58b5" y="118.570909"/>
     <use style="fill:#0000ff;stroke:#0000ff;" x="346.189091" xlink:href="#mc7e4fc58b5" y="93.861818"/>
     <use style="fill:#0000ff;stroke:#0000ff;" x="349.232727" xlink:href="#mc7e4fc58b5" y="118.570909"/>
     <use style="fill:#0000ff;stroke:#0000ff;" x="352.276364" xlink:href="#mc7e4fc58b5" y="143.28"/>
     <use style="fill:#0000ff;stroke:#0000ff;" x="355.32" xlink:href="#mc7e4fc58b5" y="118.570909"/>
     <use style="fill:#0000ff;stroke:#0000ff;" x="358.363636" xlink:href="#mc7e4fc58b5" y="143.28"/>
     <use style="fill:#0000ff;stroke:#0000ff;" x="361.407273" xlink:href="#mc7e4fc58b5" y="167.989091"/>
     <use style="fill:#0000ff;stroke:#0000ff;" x="364.450909" xlink:href="#mc7e4fc58b5" y="143.28"/>
     <use style="fill:#0000ff;stroke:#0000ff;" x="367.494545" xlink:href="#mc7e4fc58b5" y="118.570909"/>
     <use style="fill:#0000ff;stroke:#0000ff;" x="370.538182" xlink:href="#mc7e4fc58b5" y="143.28"/>
     <use style="fill:#0000ff;stroke:#0000ff;" x="373.581818" xlink:href="#mc7e4fc58b5" y="118.570909"/>
    </g>
   </g>
   <g id="patch_3">
    <path d="M 54 252 
L 54 34.56 
" style="fill:none;stroke:#000000;stroke-linecap:square;stroke-linejoin:miter;stroke-width:0.8;"/>
   </g>
   <g id="patch_4">
    <path d="M 388.8 252 
L 388.8 34.56 
" style="fill:none;stroke:#000000;stroke-linecap:square;stroke-linejoin:miter;stroke-width:0.8;"/>
   </g>
   <g id="patch_5">
    <path d="M 54 252 
L 388.8 252 
" style="fill:none;stroke:#000000;stroke-linecap:square;stroke-linejoin:miter;stroke-width:0.8;"/>
   </g>
   <g id="patch_6">
    <path d="M 54 34.56 
L 388.8 34.56 
" style="fill:none;stroke:#000000;stroke-linecap:square;stroke-linejoin:miter;stroke-width:0.8;"/>
   </g>
   <g id="text_18">
    <!-- Multiplication by constants: optimal vs. binary method -->
    <defs>
     <path d="M 9.8125 72.90625 
L 24.515625 72.90625 
L 43.109375 23.296875 
L 61.8125 72.90625 
L 76.515625 72.90625 
L 76.515625 0 
L 66.890625 0 
L 66.890625 64.015625 
L 48.09375 14.015625 
L 38.1875 14.015625 
L 19.390625 64.015625 
L 19.390625 0 
L 9.8125 0 
z
" id="DejaVuSans-77"/>
     <path d="M 8.5 21.578125 
L 8.5 54.6875 
L 17.484375 54.6875 
L 17.484375 21.921875 
Q 17.484375 14.15625 20.5 10.265625 
Q 23.53125 6.390625 29.59375 6.390625 
Q 36.859375 6.390625 41.078125 11.03125 
Q 45.3125 15.671875 45.3125 23.6875 
L 45.3125 54.6875 
L 54.296875 54.6875 
L 54.296875 0 
L 45.3125 0 
L 45.3125 8.40625 
Q 42.046875 3.421875 37.71875 1 
Q 33.40625 -1.421875 27.6875 -1.421875 
Q 18.265625 -1.421875 13.375 4.4375 
Q 8.5 10.296875 8.5 21.578125 
z
M 31.109375 56 
z
" id="DejaVuSans-117"/>
     <path d="M 9.421875 75.984375 
L 18.40625 75.984375 
L 18.40625 0 
L 9.421875 0 
z
" id="DejaVuSans-108"/>
     <path d="M 9.421875 54.6875 
L 18.40625 54.6875 
L 18.40625 0 
L 9.421875 0 
z
M 9.421875 75.984375 
L 18.40625 75.984375 
L 18.40625 64.59375 
L 9.421875 64.59375 
z
" id="DejaVuSans-105"/>
     <path d="M 18.109375 8.203125 
L 18.109375 -20.796875 
L 9.078125 -20.796875 
L 9.078125 54.6875 
L 18.109375 54.6875 
L 18.109375 46.390625 
Q 20.953125 51.265625 25.265625 53.625 
Q 29.59375 56 35.59375 56 
Q 45.5625 56 51.78125 48.09375 
Q 58.015625 40.1875 58.015625 27.296875 
Q 58.015625 14.40625 51.78125 6.484375 
Q 45.5625 -1.421875 35.59375 -1.421875 
Q 29.59375 -1.421875 25.265625 0.953125 
Q 20.953125 3.328125 18.109375 8.203125 
z
M 48.6875 27.296875 
Q 48.6875 37.203125 44.609375 42.84375 
Q 40.53125 48.484375 33.40625 48.484375 
Q 26.265625 48.484375 22.1875 42.84375 
Q 18.109375 37.203125 18.109375 27.296875 
Q 18.109375 17.390625 22.1875 11.75 
Q 26.265625 6.109375 33.40625 6.109375 
Q 40.53125 6.109375 44.609375 11.75 
Q 48.6875 17.390625 48.6875 27.296875 
z
" id="DejaVuSans-112"/>
     <path d="M 34.28125 27.484375 
Q 23.390625 27.484375 19.1875 25 
Q 14.984375 22.515625 14.984375 16.5 
Q 14.984375 11.71875 18.140625 8.90625 
Q 21.296875 6.109375 26.703125 6.109375 
Q 34.1875 6.109375 38.703125 11.40625 
Q 43.21875 16.703125 43.21875 25.484375 
L 43.21875 27.484375 
z
M 52.203125 31.203125 
L 52.203125 0 
L 43.21875 0 
L 43.21875 8.296875 
Q 40.140625 3.328125 35.546875 0.953125 
Q 30.953125 -1.421875 24.3125 -1.421875 
Q 15.921875 -1.421875 10.953125 3.296875 
Q 6 8.015625 6 15.921875 
Q 6 25.140625 12.171875 29.828125 
Q 18.359375 34.515625 30.609375 34.515625 
L 43.21875 34.515625 
L 43.21875 35.40625 
Q 43.21875 41.609375 39.140625 45 
Q 35.0625 48.390625 27.6875 48.390625 
Q 23 48.390625 18.546875 47.265625 
Q 14.109375 46.140625 10.015625 43.890625 
L 10.015625 52.203125 
Q 14.9375 54.109375 19.578125 55.046875 
Q 24.21875 56 28.609375 56 
Q 40.484375 56 46.34375 49.84375 
Q 52.203125 43.703125 52.203125 31.203125 
z
" id="DejaVuSans-97"/>
     <path id="DejaVuSans-32"/>
     <path d="M 48.6875 27.296875 
Q 48.6875 37.203125 44.609375 42.84375 
Q 40.53125 48.484375 33.40625 48.484375 
Q 26.265625 48.484375 22.1875 42.84375 
Q 18.109375 37.203125 18.109375 27.296875 
Q 18.109375 17.390625 22.1875 11.75 
Q 26.265625 6.109375 33.40625 6.109375 
Q 40.53125 6.109375 44.609375 11.75 
Q 48.6875 17.390625 48.6875 27.296875 
z
M 18.109375 46.390625 
Q 20.953125 51.265625 25.265625 53.625 
Q 29.59375 56 35.59375 56 
Q 45.5625 56 51.78125 48.09375 
Q 58.015625 40.1875 58.015625 27.296875 
Q 58.015625 14.40625 51.78125 6.484375 
Q 45.5625 -1.421875 35.59375 -1.421875 
Q 29.59375 -1.421875 25.265625 0.953125 
Q 20.953125 3.328125 18.109375 8.203125 
L 18.109375 0 
L 9.078125 0 
L 9.078125 75.984375 
L 18.109375 75.984375 
z
" id="DejaVuSans-98"/>
     <path d="M 32.171875 -5.078125 
Q 28.375 -14.84375 24.75 -17.8125 
Q 21.140625 -20.796875 15.09375 -20.796875 
L 7.90625 -20.796875 
L 7.90625 -13.28125 
L 13.1875 -13.28125 
Q 16.890625 -13.28125 18.9375 -11.515625 
Q 21 -9.765625 23.484375 -3.21875 
L 25.09375 0.875 
L 2.984375 54.6875 
L 12.5 54.6875 
L 29.59375 11.921875 
L 46.6875 54.6875 
L 56.203125 54.6875 
z
" id="DejaVuSans-121"/>
     <path d="M 11.71875 12.40625 
L 22.015625 12.40625 
L 22.015625 0 
L 11.71875 0 
z
M 11.71875 51.703125 
L 22.015625 51.703125 
L 22.015625 39.3125 
L 11.71875 39.3125 
z
" id="DejaVuSans-58"/>
     <path d="M 52 44.1875 
Q 55.375 50.25 60.0625 53.125 
Q 64.75 56 71.09375 56 
Q 79.640625 56 84.28125 50.015625 
Q 88.921875 44.046875 88.921875 33.015625 
L 88.921875 0 
L 79.890625 0 
L 79.890625 32.71875 
Q 79.890625 40.578125 77.09375 44.375 
Q 74.3125 48.1875 68.609375 48.1875 
Q 61.625 48.1875 57.5625 43.546875 
Q 53.515625 38.921875 53.515625 30.90625 
L 53.515625 0 
L 44.484375 0 
L 44.484375 32.71875 
Q 44.484375 40.625 41.703125 44.40625 
Q 38.921875 48.1875 33.109375 48.1875 
Q 26.21875 48.1875 22.15625 43.53125 
Q 18.109375 38.875 18.109375 30.90625 
L 18.109375 0 
L 9.078125 0 
L 9.078125 54.6875 
L 18.109375 54.6875 
L 18.109375 46.1875 
Q 21.1875 51.21875 25.484375 53.609375 
Q 29.78125 56 35.6875 56 
Q 41.65625 56 45.828125 52.96875 
Q 50 49.953125 52 44.1875 
z
" id="DejaVuSans-109"/>
     <path d="M 2.984375 54.6875 
L 12.5 54.6875 
L 29.59375 8.796875 
L 46.6875 54.6875 
L 56.203125 54.6875 
L 35.6875 0 
L 23.484375 0 
z
" id="DejaVuSans-118"/>
     <path d="M 10.6875 12.40625 
L 21 12.40625 
L 21 0 
L 10.6875 0 
z
" id="DejaVuSans-46"/>
     <path d="M 41.109375 46.296875 
Q 39.59375 47.171875 37.8125 47.578125 
Q 36.03125 48 33.890625 48 
Q 26.265625 48 22.1875 43.046875 
Q 18.109375 38.09375 18.109375 28.8125 
L 18.109375 0 
L 9.078125 0 
L 9.078125 54.6875 
L 18.109375 54.6875 
L 18.109375 46.1875 
Q 20.953125 51.171875 25.484375 53.578125 
Q 30.03125 56 36.53125 56 
Q 37.453125 56 38.578125 55.875 
Q 39.703125 55.765625 41.0625 55.515625 
z
" id="DejaVuSans-114"/>
     <path d="M 56.203125 29.59375 
L 56.203125 25.203125 
L 14.890625 25.203125 
Q 15.484375 15.921875 20.484375 11.0625 
Q 25.484375 6.203125 34.421875 6.203125 
Q 39.59375 6.203125 44.453125 7.46875 
Q 49.3125 8.734375 54.109375 11.28125 
L 54.109375 2.78125 
Q 49.265625 0.734375 44.1875 -0.34375 
Q 39.109375 -1.421875 33.890625 -1.421875 
Q 20.796875 -1.421875 13.15625 6.1875 
Q 5.515625 13.8125 5.515625 26.8125 
Q 5.515625 40.234375 12.765625 48.109375 
Q 20.015625 56 32.328125 56 
Q 43.359375 56 49.78125 48.890625 
Q 56.203125 41.796875 56.203125 29.59375 
z
M 47.21875 32.234375 
Q 47.125 39.59375 43.09375 43.984375 
Q 39.0625 48.390625 32.421875 48.390625 
Q 24.90625 48.390625 20.390625 44.140625 
Q 15.875 39.890625 15.1875 32.171875 
z
" id="DejaVuSans-101"/>
     <path d="M 54.890625 33.015625 
L 54.890625 0 
L 45.90625 0 
L 45.90625 32.71875 
Q 45.90625 40.484375 42.875 44.328125 
Q 39.84375 48.1875 33.796875 48.1875 
Q 26.515625 48.1875 22.3125 43.546875 
Q 18.109375 38.921875 18.109375 30.90625 
L 18.109375 0 
L 9.078125 0 
L 9.078125 75.984375 
L 18.109375 75.984375 
L 18.109375 46.1875 
Q 21.34375 51.125 25.703125 53.5625 
Q 30.078125 56 35.796875 56 
Q 45.21875 56 50.046875 50.171875 
Q 54.890625 44.34375 54.890625 33.015625 
z
" id="DejaVuSans-104"/>
     <path d="M 45.40625 46.390625 
L 45.40625 75.984375 
L 54.390625 75.984375 
L 54.390625 0 
L 45.40625 0 
L 45.40625 8.203125 
Q 42.578125 3.328125 38.25 0.953125 
Q 33.9375 -1.421875 27.875 -1.421875 
Q 17.96875 -1.421875 11.734375 6.484375 
Q 5.515625 14.40625 5.515625 27.296875 
Q 5.515625 40.1875 11.734375 48.09375 
Q 17.96875 56 27.875 56 
Q 33.9375 56 38.25 53.625 
Q 42.578125 51.265625 45.40625 46.390625 
z
M 14.796875 27.296875 
Q 14.796875 17.390625 18.875 11.75 
Q 22.953125 6.109375 30.078125 6.109375 
Q 37.203125 6.109375 41.296875 11.75 
Q 45.40625 17.390625 45.40625 27.296875 
Q 45.40625 37.203125 41.296875 42.84375 
Q 37.203125 48.484375 30.078125 48.484375 
Q 22.953125 48.484375 18.875 42.84375 
Q 14.796875 37.203125 14.796875 27.296875 
z
" id="DejaVuSans-100"/>
    </defs>
    <g transform="translate(57.676875 28.56)scale(0.12 -0.12)">
     <use xlink:href="#DejaVuSans-77"/>
     <use x="86.279297" xlink:href="#DejaVuSans-117"/>
     <use x="149.658203" xlink:href="#DejaVuSans-108"/>
     <use x="177.441406" xlink:href="#DejaVuSans-116"/>
     <use x="216.650391" xlink:href="#DejaVuSans-105"/>
     <use x="244.433594" xlink:href="#DejaVuSans-112"/>
     <use x="307.910156" xlink:href="#DejaVuSans-108"/>
     <use x="335.693359" xlink:href="#DejaVuSans-105"/>
     <use x="363.476562" xlink:href="#DejaVuSans-99"/>
     <use x="418.457031" xlink:href="#DejaVuSans-97"/>
     <use x="479.736328" xlink:href="#DejaVuSans-116"/>
     <use x="518.945312" xlink:href="#DejaVuSans-105"/>
     <use x="546.728516" xlink:href="#DejaVuSans-111"/>
     <use x="607.910156" xlink:href="#DejaVuSans-110"/>
     <use x="671.289062" xlink:href="#DejaVuSans-32"/>
     <use x="703.076172" xlink:href="#DejaVuSans-98"/>
     <use x="766.552734" xlink:href="#DejaVuSans-121"/>
     <use x="825.732422" xlink:href="#DejaVuSans-32"/>
     <use x="857.519531" xlink:href="#DejaVuSans-99"/>
     <use x="912.5" xlink:href="#DejaVuSans-111"/>
     <use x="973.681641" xlink:href="#DejaVuSans-110"/>
     <use x="1037.060547" xlink:href="#DejaVuSans-115"/>
     <use x="1089.160156" xlink:href="#DejaVuSans-116"/>
     <use x="1128.369141" xlink:href="#DejaVuSans-97"/>
     <use x="1189.648438" xlink:href="#DejaVuSans-110"/>
     <use x="1253.027344" xlink:href="#DejaVuSans-116"/>
     <use x="1292.236328" xlink:href="#DejaVuSans-115"/>
     <use x="1344.335938" xlink:href="#DejaVuSans-58"/>
     <use x="1378.027344" xlink:href="#DejaVuSans-32"/>
     <use x="1409.814453" xlink:href="#DejaVuSans-111"/>
     <use x="1470.996094" xlink:href="#DejaVuSans-112"/>
     <use x="1534.472656" xlink:href="#DejaVuSans-116"/>
     <use x="1573.681641" xlink:href="#DejaVuSans-105"/>
     <use x="1601.464844" xlink:href="#DejaVuSans-109"/>
     <use x="1698.876953" xlink:href="#DejaVuSans-97"/>
     <use x="1760.15625" xlink:href="#DejaVuSans-108"/>
     <use x="1787.939453" xlink:href="#DejaVuSans-32"/>
     <use x="1819.726562" xlink:href="#DejaVuSans-118"/>
     <use x="1878.90625" xlink:href="#DejaVuSans-115"/>
     <use x="1931.005859" xlink:href="#DejaVuSans-46"/>
     <use x="1962.792969" xlink:href="#DejaVuSans-32"/>
     <use x="1994.580078" xlink:href="#DejaVuSans-98"/>
     <use x="2058.056641" xlink:href="#DejaVuSans-105"/>
     <use x="2085.839844" xlink:href="#DejaVuSans-110"/>
     <use x="2149.21875" xlink:href="#DejaVuSans-97"/>
     <use x="2210.498047" xlink:href="#DejaVuSans-114"/>
     <use x="2251.611328" xlink:href="#DejaVuSans-121"/>
     <use x="2310.791016" xlink:href="#DejaVuSans-32"/>
     <use x="2342.578125" xlink:href="#DejaVuSans-109"/>
     <use x="2439.990234" xlink:href="#DejaVuSans-101"/>
     <use x="2501.513672" xlink:href="#DejaVuSans-116"/>
     <use x="2540.722656" xlink:href="#DejaVuSans-104"/>
     <use x="2604.101562" xlink:href="#DejaVuSans-111"/>
     <use x="2665.283203" xlink:href="#DejaVuSans-100"/>
    </g>
   </g>
   <g id="legend_1">
    <g id="patch_7">
     <path d="M 61 57.238125 
L 304.909375 57.238125 
Q 306.909375 57.238125 306.909375 55.238125 
L 306.909375 41.56 
Q 306.909375 39.56 304.909375 39.56 
L 61 39.56 
Q 59 39.56 59 41.56 
L 59 55.238125 
Q 59 57.238125 61 57.238125 
z
" style="fill:#ffffff;opacity:0.8;stroke:#cccccc;stroke-linejoin:miter;"/>
    </g>
    <g id="line2d_18">
     <path d="M 63 47.658437 
L 83 47.658437 
" style="fill:none;stroke:#808080;stroke-linecap:square;stroke-opacity:0.3;stroke-width:1.5;"/>
    </g>
    <g id="line2d_19">
     <g>
      <use style="fill:#808080;fill-opacity:0.3;stroke:#808080;stroke-opacity:0.3;" x="73" xlink:href="#m30600ab4d8" y="47.658437"/>
     </g>
    </g>
    <g id="text_19">
     <!-- binary method -->
     <g transform="translate(91 51.158437)scale(0.1 -0.1)">
      <use xlink:href="#DejaVuSans-98"/>
      <use x="63.476562" xlink:href="#DejaVuSans-105"/>
      <use x="91.259766" xlink:href="#DejaVuSans-110"/>
      <use x="154.638672" xlink:href="#DejaVuSans-97"/>
      <use x="215.917969" xlink:href="#DejaVuSans-114"/>
      <use x="257.03125" xlink:href="#DejaVuSans-121"/>
      <use x="316.210938" xlink:href="#DejaVuSans-32"/>
      <use x="347.998047" xlink:href="#DejaVuSans-109"/>
      <use x="445.410156" xlink:href="#DejaVuSans-101"/>
      <use x="506.933594" xlink:href="#DejaVuSans-116"/>
      <use x="546.142578" xlink:href="#DejaVuSans-104"/>
      <use x="609.521484" xlink:href="#DejaVuSans-111"/>
      <use x="670.703125" xlink:href="#DejaVuSans-100"/>
     </g>
    </g>
    <g id="line2d_20">
     <path d="M 184.41875 47.658437 
L 204.41875 47.658437 
" style="fill:none;stroke:#0000ff;stroke-linecap:square;stroke-width:1.5;"/>
    </g>
    <g id="line2d_21">
     <g>
      <use style="fill:#0000ff;stroke:#0000ff;" x="194.41875" xlink:href="#mc7e4fc58b5" y="47.658437"/>
     </g>
    </g>
    <g id="text_20">
     <!-- alpha-beta search -->
     <defs>
      <path d="M 4.890625 31.390625 
L 31.203125 31.390625 
L 31.203125 23.390625 
L 4.890625 23.390625 
z
" id="DejaVuSans-45"/>
     </defs>
     <g transform="translate(212.41875 51.158437)scale(0.1 -0.1)">
      <use xlink:href="#DejaVuSans-97"/>
      <use x="61.279297" xlink:href="#DejaVuSans-108"/>
      <use x="89.0625" xlink:href="#DejaVuSans-112"/>
      <use x="152.539062" xlink:href="#DejaVuSans-104"/>
      <use x="215.917969" xlink:href="#DejaVuSans-97"/>
      <use x="277.197266" xlink:href="#DejaVuSans-45"/>
      <use x="313.28125" xlink:href="#DejaVuSans-98"/>
      <use x="376.757812" xlink:href="#DejaVuSans-101"/>
      <use x="438.28125" xlink:href="#DejaVuSans-116"/>
      <use x="477.490234" xlink:href="#DejaVuSans-97"/>
      <use x="538.769531" xlink:href="#DejaVuSans-32"/>
      <use x="570.556641" xlink:href="#DejaVuSans-115"/>
      <use x="622.65625" xlink:href="#DejaVuSans-101"/>
      <use x="684.179688" xlink:href="#DejaVuSans-97"/>
      <use x="745.458984" xlink:href="#DejaVuSans-114"/>
      <use x="786.541016" xlink:href="#DejaVuSans-99"/>
      <use x="841.521484" xlink:href="#DejaVuSans-104"/>
     </g>
    </g>
   </g>
  </g>
 </g>
 <defs>
  <clipPath id="p7f08852288">
   <rect height="217.44" width="334.8" x="54" y="34.56"/>
  </clipPath>
 </defs>
</svg>
